<svg width="48px" height="48px" viewBox="0 0 48 48" role="img" xmlns="http://www.w3.org/2000/svg">
  <title>Kaggle icon</title>
  <path fill="currentColor" d="M37.65 47.718c-0.044 0.184 -0.234 0.282 -0.562 0.282h-6.278c-0.374 0 -0.702 -0.164 -0.984 -0.496l-10.356 -13.178 -2.896 2.748v10.222c0 0.47 -0.234 0.704 -0.702 0.704H11.01c-0.472 0 -0.708 -0.234 -0.708 -0.704V0.706c0 -0.466 0.236 -0.706 0.708 -0.706h4.862c0.468 0 0.702 0.24 0.702 0.706v28.686l12.406 -12.544c0.33 -0.33 0.66 -0.492 0.99 -0.492h6.478c0.288 0 0.472 0.12 0.57 0.36 0.092 0.298 0.068 0.51 -0.072 0.63l-13.11 12.688 13.672 17.014c0.19 0.208 0.234 0.416 0.14 0.716"/>
</svg>
