<svg width="48px" height="48px" viewBox="0 0 48 48" xmlns="http://www.w3.org/2000/svg">
  <path fill="currentColor" d="m32.204 35.861 -5.393 5.21c-0.936 0.938 -2.226 1.328 -3.648 1.328s-2.71 -0.39 -3.648 -1.328l-8.664 -8.718c-0.93 -0.938 -1.405 -2.305 -1.405 -3.728 0 -1.428 0.476 -2.718 1.405 -3.648l8.64 -8.766c0.93 -0.928 2.25 -1.288 3.672 -1.288s2.712 0.39 3.648 1.328l5.393 5.21c1.03 1.032 2.734 0.995 3.804 -0.078 1.062 -1.069 1.103 -2.772 0.071 -3.804l-5.21 -5.267a10.19 10.19 0 0 0 -4.892 -2.68l4.931 -5c1.032 -1.03 1.001 -2.734 -0.071 -3.804S28.064 -0.275 27.033 0.75L6.829 20.952c-1.96 1.968 -2.984 4.67 -2.984 7.67 0 2.994 1.025 5.79 2.984 7.752l8.695 8.718c1.96 1.96 4.673 2.905 7.673 2.905 2.993 0 5.702 -1.025 7.663 -2.984l5.219 -5.281c1.032 -1.025 0.992 -2.725 -0.078 -3.796s-2.773 -1.11 -3.796 -0.078zm9.42 -9.837H21.327c-1.398 0 -2.538 1.202 -2.538 2.686 0 1.486 1.14 2.696 2.538 2.696h20.297c1.4 0 2.54 -1.211 2.54 -2.696 0 -1.484 -1.14 -2.686 -2.54 -2.686z"/>
</svg>
